<svg width="21" height="20" viewBox="0 0 21 20" fill="none" xmlns="http://www.w3.org/2000/svg">
<g clip-path="url(#clip0_2864_19940)">
<path d="M10.5 1.66602C15.1 1.66602 18.8333 5.39935 18.8333 9.99935C18.8333 14.5993 15.1 18.3327 10.5 18.3327C5.90001 18.3327 2.16667 14.5993 2.16667 9.99935C2.16667 5.39935 5.90001 1.66602 10.5 1.66602ZM5.51917 12.846C6.74251 14.671 8.57917 15.8327 10.6333 15.8327C12.6867 15.8327 14.5242 14.6719 15.7467 12.846C14.3598 11.5498 12.5316 10.83 10.6333 10.8327C8.73476 10.8298 6.90627 11.5497 5.51917 12.846ZM10.5 9.16602C11.163 9.16602 11.7989 8.90262 12.2678 8.43378C12.7366 7.96494 13 7.32906 13 6.66602C13 6.00297 12.7366 5.36709 12.2678 4.89825C11.7989 4.42941 11.163 4.16602 10.5 4.16602C9.83696 4.16602 9.20108 4.42941 8.73224 4.89825C8.2634 5.36709 8.00001 6.00297 8.00001 6.66602C8.00001 7.32906 8.2634 7.96494 8.73224 8.43378C9.20108 8.90262 9.83696 9.16602 10.5 9.16602Z" fill="currentColor"/>
</g>
<defs>
<clipPath id="clip0_2864_19940">
<rect width="20" height="20" fill="white" transform="translate(0.5)"/>
</clipPath>
</defs>
</svg>
