<svg width="20" height="20" viewBox="0 0 20 20" fill="none" xmlns="http://www.w3.org/2000/svg">
<g clip-path="url(#clip0_2974_5920)">
<path d="M14.1667 2.50001H17.5001C17.7211 2.50001 17.9331 2.58781 18.0893 2.74409C18.2456 2.90037 18.3334 3.11233 18.3334 3.33334V16.6667C18.3334 16.8877 18.2456 17.0997 18.0893 17.2559C17.9331 17.4122 17.7211 17.5 17.5001 17.5H2.50008C2.27907 17.5 2.06711 17.4122 1.91083 17.2559C1.75455 17.0997 1.66675 16.8877 1.66675 16.6667V3.33334C1.66675 3.11233 1.75455 2.90037 1.91083 2.74409C2.06711 2.58781 2.27907 2.50001 2.50008 2.50001H5.83342V0.833344H7.50008V2.50001H12.5001V0.833344H14.1667V2.50001ZM12.5001 4.16668H7.50008V5.83334H5.83342V4.16668H3.33341V7.50001H16.6667V4.16668H14.1667V5.83334H12.5001V4.16668ZM16.6667 9.16668H3.33341V15.8333H16.6667V9.16668Z" fill="currentColor" />
</g>
<defs>
<clipPath id="clip0_2974_5920">
<rect width="20" height="20" fill="white"/>
</clipPath>
</defs>
</svg>
