<svg width="20" height="21" viewBox="0 0 20 21" fill="none"
    xmlns="http://www.w3.org/2000/svg">
    <g clip-path="url(#clip0_3496_13327)">
        <path d="M1.66666 9.66683H18.3333V17.1668C18.3333 17.3878 18.2455 17.5998 18.0892 17.7561C17.933 17.9124 17.721 18.0002 17.5 18.0002H2.49999C2.27898 18.0002 2.06701 17.9124 1.91073 17.7561C1.75445 17.5998 1.66666 17.3878 1.66666 17.1668V9.66683ZM14.1667 3.00016H17.5C17.721 3.00016 17.933 3.08796 18.0892 3.24424C18.2455 3.40052 18.3333 3.61248 18.3333 3.8335V8.00016H1.66666V3.8335C1.66666 3.61248 1.75445 3.40052 1.91073 3.24424C2.06701 3.08796 2.27898 3.00016 2.49999 3.00016H5.83332V1.3335H7.49999V3.00016H12.5V1.3335H14.1667V3.00016Z" fill="currentColor"/>
    </g>
    <defs>
        <clipPath id="clip0_3496_13327">
            <rect width="20" height="20" fill="white" transform="translate(0 0.5)"/>
        </clipPath>
    </defs>
</svg>
