<svg width="24" height="24" viewBox="0 0 24 24" fill="none" xmlns="http://www.w3.org/2000/svg">
<g clip-path="url(#clip0_2495_50482)">
<path d="M7.83268 7.83317V4.49984C7.83268 4.27882 7.92048 4.06686 8.07676 3.91058C8.23304 3.7543 8.445 3.6665 8.66602 3.6665H19.4993C19.7204 3.6665 19.9323 3.7543 20.0886 3.91058C20.2449 4.06686 20.3327 4.27882 20.3327 4.49984V15.3332C20.3327 15.5542 20.2449 15.7661 20.0886 15.9224C19.9323 16.0787 19.7204 16.1665 19.4993 16.1665H16.166V19.494C16.166 19.9573 15.7918 20.3332 15.3268 20.3332H4.50518C4.39495 20.3333 4.28578 20.3117 4.18392 20.2695C4.08206 20.2274 3.9895 20.1656 3.91156 20.0876C3.83361 20.0097 3.7718 19.9171 3.72967 19.8153C3.68754 19.7134 3.66591 19.6042 3.66602 19.494L3.66852 8.67234C3.66852 8.209 4.04268 7.83317 4.50768 7.83317H7.83268ZM9.49935 7.83317H15.3268C15.7902 7.83317 16.166 8.20734 16.166 8.67234V14.4998H18.666V5.33317H9.49935V7.83317ZM5.33518 9.49984L5.33268 18.6665H14.4993V9.49984H5.33518Z" fill="currentColor"/>
</g>
<defs>
<clipPath id="clip0_2495_50482">
<rect width="20" height="20" fill="white" transform="translate(2 2)"/>
</clipPath>
</defs>
</svg>
