<svg width="20" height="20" viewBox="0 0 20 20" fill="none" xmlns="http://www.w3.org/2000/svg">
<g clip-path="url(#clip0_5204_77879)">
<path d="M5.83333 3.33332V1.66666H14.1667V3.33332H16.6725C17.1292 3.33332 17.5 3.70416 17.5 4.16082V17.5058C17.4998 17.7252 17.4125 17.9356 17.2574 18.0907C17.1022 18.2458 16.8919 18.3331 16.6725 18.3333H3.3275C3.1081 18.3331 2.89775 18.2458 2.74261 18.0907C2.58747 17.9356 2.50022 17.7252 2.5 17.5058V4.16082C2.5 3.70416 2.87083 3.33332 3.3275 3.33332H5.83333ZM5.83333 4.99999H4.16667V16.6667H15.8333V4.99999H14.1667V6.66666H5.83333V4.99999ZM7.5 3.33332V4.99999H12.5V3.33332H7.5Z" fill="currentColor"/>
</g>
<defs>
<clipPath id="clip0_5204_77879">
<rect width="20" height="20" fill="white"/>
</clipPath>
</defs>
</svg>
