<svg width="24"
     height="24"
     viewBox="0 0 24 24"
     fill="currentColor"
     xmlns="http://www.w3.org/2000/svg">
  <mask id="mask0_9695_8964"
        style="mask-type:alpha"
        maskUnits="userSpaceOnUse"
        x="0"
        y="0"
        width="24"
        height="24">
    <rect width="24"
          height="24"
          fill="currentColor" />
  </mask>
  <g mask="url(#mask0_9695_8964)">
    <path d="M18.0547 17.9938C17.8203 18.2281 17.3906 18.2281 17.1563 17.9938L12 12.7985L6.80469 17.9938C6.57031 18.2281 6.14063 18.2281 5.90625 17.9938C5.67188 17.7594 5.67188 17.3297 5.90625 17.0953L11.1016 11.9L5.90625 6.74377C5.67188 6.5094 5.67188 6.07971 5.90625 5.84534C6.14063 5.61096 6.57031 5.61096 6.80469 5.84534L12 11.0406L17.1563 5.84534C17.3906 5.61096 17.8203 5.61096 18.0547 5.84534C18.2891 6.07971 18.2891 6.5094 18.0547 6.74377L12.8594 11.9L18.0547 17.0953C18.2891 17.3297 18.2891 17.7594 18.0547 17.9938Z"
          fill="currentColor" />
  </g>
</svg>