<svg width="24" height="25" viewBox="0 0 24 25" fill="none" xmlns="http://www.w3.org/2000/svg">
<g clip-path="url(#clip0_2495_48705)">
<path d="M12.0003 20.8332C7.39783 20.8332 3.66699 17.1023 3.66699 12.4998C3.66699 7.89734 7.39783 4.1665 12.0003 4.1665C16.6028 4.1665 20.3337 7.89734 20.3337 12.4998C20.3337 17.1023 16.6028 20.8332 12.0003 20.8332ZM12.0003 19.1665C13.7684 19.1665 15.4641 18.4641 16.7144 17.2139C17.9646 15.9636 18.667 14.2679 18.667 12.4998C18.667 10.7317 17.9646 9.03604 16.7144 7.78579C15.4641 6.53555 13.7684 5.83317 12.0003 5.83317C10.2322 5.83317 8.53652 6.53555 7.28628 7.78579C6.03604 9.03604 5.33366 10.7317 5.33366 12.4998C5.33366 14.2679 6.03604 15.9636 7.28628 17.2139C8.53652 18.4641 10.2322 19.1665 12.0003 19.1665ZM14.917 9.58317L13.2503 13.7498L9.08366 15.4165L10.7503 11.2498L14.917 9.58317Z" fill="currentColor"/>
</g>
<defs>
<clipPath id="clip0_2495_48705">
<rect width="20" height="20" fill="white" transform="translate(2 2.5)"/>
</clipPath>
</defs>
</svg>
