<svg xmlns="http://www.w3.org/2000/svg" width="80" height="80" viewBox="0 0 80 80" fill="none">
      <circle cx="40" cy="40" r="40" fill="currentColor"/>
      <circle cx="38.2609" cy="38.2609" r="38.2609" fill="white" fill-opacity="0.1"/>
      <path fill-rule="evenodd" clip-rule="evenodd" d="M50.1686 23.9704C52.0366 22.1025 55.0652 22.1025 56.9331 23.9704C58.8011 25.8384 58.8011 28.867 56.9331 30.735L46.7647 40.9034L57.7313 51.8699C59.5993 53.7379 59.5993 56.7665 57.7313 58.6344C55.8633 60.5024 52.8347 60.5024 50.9668 58.6344L40.0002 47.6679L29.0337 58.6344C27.1657 60.5024 24.1371 60.5024 22.2691 58.6344C20.4012 56.7665 20.4012 53.7379 22.2691 51.8699L33.2357 40.9034L23.0673 30.735C21.1993 28.867 21.1993 25.8384 23.0673 23.9704C24.9353 22.1025 27.9639 22.1025 29.8318 23.9704L40.0002 34.1388L50.1686 23.9704Z" fill="#EBEFFA"/>
    </svg>